#!OML:ASF F:\VICON\USERDATA\INSTALL\rory3\rory3.ASF
:FULLY-SPECIFIED
:DEGREES
1
root -0.32237597947692437 17.27625913268685 -30.060475517109182 5.258836478895032 -3.8517269764295885 -5.573987006065758
lfemur -27.040679803207386 7.65022927327298 -12.82431354574948
ltibia 94.79399962136048
lfoot 10.152019655912001 -18.682895412062553
ltoes 4.062878026654088
rfemur -17.82220568852778 5.827088693547134 33.47958207790308
rtibia 42.932694535208284
rfoot -28.811386905803317 -12.17385450627809
rtoes -5.346271434871145
lowerback 15.808279205044883 0.6848366579703727 2.8380153556655747
upperback 0.5723110394750194 1.635410306953309 2.1635626657855287
thorax -7.774584377318348 0.7293347912243584 0.6164185416879404
lowerneck -20.44513767532094 -3.4849218126989645 -1.3250308737855592
upperneck 7.755335336267172 -4.638565365201197 2.6534739529938776
head 5.611678231578216 -2.07170656794567 0.6364709105770637
lclavicle 4.2874894576505686e-15 5.758950621441299e-17
lhumerus -52.01958568590748 -9.025305993300877 96.70857404736604
lradius 103.92950220960614
lwrist 24.54177145830194
lhand -30.35467506693816 3.9646935018533647
lfingers 7.125019999999998
lthumb -3.659767975150352 33.92745502835204
rclavicle 4.2874894576505686e-15 5.758950621441299e-17
rhumerus -29.989768861928816 15.83730447375314 -97.40056586179641
rradius 98.74406522542189
rwrist -8.157802923007807
rhand -25.36226996887972 37.407932658682604
rfingers 7.125019999999998
rthumb 1.1614712873355817 7.246133000300789
2
root -0.33377448409874483 17.390067933887615 -29.15890378503127 4.872541874192521 -2.1141748480881803 -5.719466829659304
lfemur -31.526463666578366 6.943160483783374 -12.909363906593944
ltibia 94.16924831848951
lfoot 8.796964263520175 -16.983151213245804
ltoes 7.283875000061565
rfemur -13.744519994238336 4.78998507388671 33.80052950812348
rtibia 41.444705621035226
rfoot -27.731464217178797 -12.252614433603119
rtoes -8.48453449351378
lowerback 16.41227626525359 0.7290968508904561 2.9928403050562853
upperback 0.09187654790947164 1.8156053397690326 2.441265104865242
thorax -8.775446875812115 0.8128922635939227 0.8295218793184063
lowerneck -19.003423205788202 -3.824702881502004 -2.1527106182240976
upperneck 7.962448072133292 -4.934885929073358 2.5644937462896893
head 5.247514555376958 -2.2615333183540915 0.6952124810390957
lclavicle 4.2874894423229586e-15 5.758951096358607e-17
lhumerus -55.49306589260906 -9.040788570160128 97.83791448998183
lradius 104.91026548893899
lwrist 25.474531575121112
lhand -30.939684877536695 4.1544228051266465
lfingers 7.125019999999998
lthumb -4.224776645565541 34.11850980968886
rclavicle 4.2874894423229586e-15 5.758951096358607e-17
rhumerus -30.70631655326808 16.115154916067336 -97.45222603295338
rradius 101.2826526433898
rwrist -10.631293846838874
rhand -25.958130033457948 37.996991492026964
rfingers 7.125019999999998
rthumb 0.5857984366376208 7.825056372887673
3
root -0.33124365173693765 17.559572461079576 -28.22420780417626 4.6204611029781235 -1.3129548000448308 -6.065048349263126
lfemur -35.022483282289556 6.733340407291804 -13.186804049210753
ltibia 91.87997469658913
lfoot 6.218317885171632 -15.11015387620659
ltoes 0.8312385493579404
rfemur -9.601218300623877 4.631306615342795 34.11368539780308
rtibia 39.80248220316279
rfoot -25.47782826604329 -11.412643570177064
rtoes -11.388379270352962
lowerback 16.656211500791727 1.2236531858555755 3.8238514548383886
upperback -0.5431300694576029 2.6581924193899837 2.2481711685545207
thorax -9.770607340183535 1.1632640690617382 0.05207558111398164
lowerneck -17.339319698049515 -4.179313105110489 -1.7527423001989961
upperneck 7.961470548896171 -5.485873292859859 2.2961531379093834
head 4.652468502011639 -2.5461207027771455 0.5300593127361665
lclavicle 4.287489430082918e-15 5.758949956556748e-17
lhumerus -59.22322795119632 -9.715339301271653 98.41729397817623
lradius 105.71189417356456
lwrist 26.21394845166853
lhand -29.727556311078448 3.7307865995777876
lfingers 7.125019999999998
lthumb -3.054237224129351 33.690788431849775
rclavicle 4.287489430082918e-15 5.758949956556748e-17
rhumerus -32.334102337813206 15.40840442734449 -97.76564848729261
rradius 104.01636285897405
rwrist -11.405779210520885
rhand -24.313326664348256 37.50729734842224
rfingers 7.125019999999998
rthumb 2.174830309825406 7.392749168058733
4
root -0.2965081402210156 17.765724002421997 -27.220209973226282 4.755424389616066 -1.8578350611768144 -6.336937941864649
lfemur -37.06846238080904 7.342447650494737 -13.9337808391103
ltibia 87.88467678433095
lfoot 0.2871783541917037 -12.10822776831713
ltoes -10.455878986408354
rfemur -5.783509748858595 5.229655502814092 33.943125373362726
rtibia 37.91378599996682
rfoot -21.227866093222644 -9.966261774760532
rtoes -14.810918839671253
lowerback 14.595427199424712 1.9760016657801838 4.451765089348891
upperback -0.3233251017713438 3.6223581905884634 2.159758220956159
thorax -8.326147321640551 1.6415787922043745 -0.4978444130076573
lowerneck -18.00648681266735 -4.458123971189145 -1.9939894194505714
upperneck 8.852849550750639 -5.819867624351639 2.3210957860265036
head 5.333386597409907 -2.705437400567221 0.5049662618308386
lclavicle 4.287489498671153e-15 5.758956288788591e-17
lhumerus -60.90725749840566 -9.447503954578231 98.46382731577965
lradius 106.3265878610147
lwrist 26.354471115989757
lhand -32.236136344355856 3.0241456768738075
lfingers 7.125019999999998
lthumb -5.4767886110937845 32.98392596296281
rclavicle 4.287489498671153e-15 5.758956288788591e-17
rhumerus -31.274399217485595 15.688930466510605 -97.72678906651082
rradius 105.79702430796958
rwrist -11.570854383213796
rhand -25.045865045967023 39.168276908001125
rfingers 7.125019999999998
rthumb 1.4671471818700352 9.053621719944283
